<svg width="24" height="24" viewBox="0 0 24 24" fill="none" xmlns="http://www.w3.org/2000/svg">
<path fill-rule="evenodd" clip-rule="evenodd" d="M9.84351 1.69724C10.0118 2.22705 9.72833 2.79609 9.21033 2.96824C7.62692 3.49443 6.21663 4.45822 5.13537 5.75304C4.05411 7.04786 3.34401 8.62328 3.08356 10.3051C2.82312 11.987 3.02248 13.7097 3.6596 15.2829C4.29673 16.8561 5.3468 18.2184 6.69372 19.2193C8.04065 20.2202 9.63195 20.8206 11.2917 20.9542C12.9515 21.0878 14.615 20.7494 16.0984 19.9763C17.5819 19.2033 18.8274 18.0257 19.6973 16.5738C20.5672 15.1219 21.0276 13.4523 21.0276 11.7495C21.0276 11.1924 21.4691 10.7408 22.0138 10.7408C22.5585 10.7408 23 11.1924 23 11.7495C23 13.8243 22.439 15.8588 21.379 17.6279C20.3191 19.397 18.8014 20.8318 16.9939 21.7738C15.1864 22.7157 13.1593 23.1281 11.137 22.9653C9.11456 22.8025 7.17558 22.0709 5.53437 20.8513C3.89316 19.6318 2.61366 17.9718 1.83733 16.0549C1.061 14.138 0.818083 12.0388 1.13543 9.98953C1.45278 7.94024 2.31804 6.02061 3.63554 4.44289C4.95304 2.86516 6.67146 1.6908 8.60082 1.04964C9.11882 0.877496 9.6752 1.16744 9.84351 1.69724Z" fill="white"/>
</svg>
